<?xml version="1.0" standalone="no"?>
<!DOCTYPE svg PUBLIC "-//W3C//DTD SVG 20010904//EN"
 "http://www.w3.org/TR/2001/REC-SVG-20010904/DTD/svg10.dtd">
<svg version="1.0" xmlns="http://www.w3.org/2000/svg"
 width="1200.000000pt" height="1200.000000pt" viewBox="0 0 1200.000000 1200.000000"
 preserveAspectRatio="xMidYMid meet">

<g transform="translate(0.000000,1200.000000) scale(0.100000,-0.100000)"
fill="#000000" stroke="none">
<path d="M58 11945 c-5 -5 -8 -2683 -8 -5952 l0 -5943 5950 0 5950 0 0 5945 0
5945 -3603 0 c-1982 0 -4656 3 -5943 6 -1286 4 -2342 3 -2346 -1z m3353 -1606
c708 -586 1351 -914 1949 -995 213 -28 496 -14 689 36 279 71 509 192 791 415
284 224 396 293 509 313 110 20 253 -17 386 -97 66 -40 820 -595 830 -610 2
-5 -42 -11 -98 -14 -294 -18 -540 -98 -703 -228 -147 -117 -281 -278 -504
-604 -185 -271 -254 -359 -375 -480 -161 -162 -318 -260 -518 -324 -53 -17
-104 -31 -112 -31 -13 0 -15 -29 -15 -195 l0 -195 380 0 380 0 170 -166 c93
-92 170 -170 170 -175 0 -5 -244 -9 -550 -9 l-550 0 0 -330 0 -330 508 0 c521
0 616 5 757 41 414 106 669 436 604 784 -15 83 -51 158 -178 368 -122 202
-175 313 -196 415 -19 90 -19 118 5 195 24 76 88 154 169 207 53 33 220 105
227 97 3 -3 -2 -33 -11 -68 -11 -43 -16 -93 -13 -154 2 -76 8 -100 34 -155 47
-100 107 -164 316 -343 317 -270 421 -400 503 -631 132 -369 83 -769 -128
-1043 -216 -281 -623 -488 -1124 -572 -272 -46 -267 -46 -1718 -46 -1259 0
-1392 2 -1515 18 -528 69 -927 226 -1182 466 -99 92 -157 167 -213 274 -176
334 -144 806 78 1139 81 121 175 218 387 398 205 174 266 240 314 340 29 61
31 71 30 180 0 81 -5 128 -17 158 -20 52 -17 52 88 9 193 -80 300 -192 320
-335 16 -117 -50 -290 -214 -561 -163 -269 -187 -338 -178 -496 17 -280 224
-521 537 -624 161 -52 177 -54 778 -58 l562 -4 0 330 0 331 -550 0 c-302 0
-550 3 -550 7 0 4 75 83 167 175 l168 168 382 0 383 0 0 193 0 193 -95 27
c-309 87 -499 242 -817 667 -209 279 -299 385 -410 478 -257 216 -511 318
-912 367 -145 18 -195 37 -254 97 -84 84 -127 211 -141 410 -16 226 29 615 77
671 29 33 57 19 193 -94z m744 -5758 c52 -23 103 -75 126 -126 10 -22 261
-656 559 -1410 298 -753 544 -1376 547 -1383 4 -10 -59 -12 -307 -10 l-313 3
-135 343 -136 342 -574 -2 -574 -3 -132 -340 -133 -340 -307 -3 c-178 -1 -306
1 -304 7 1 5 264 668 583 1475 l580 1466 240 0 c211 0 245 -3 280 -19z m2117
-10 l33 -29 5 -1264 5 -1263 23 -61 c27 -71 78 -136 122 -154 29 -12 30 -14
30 -81 l0 -69 -355 0 -355 0 -32 29 -33 29 -5 1259 -5 1258 -24 68 c-26 74
-88 153 -127 163 -22 6 -24 11 -24 75 l0 69 355 0 355 0 32 -29z m2169 -3
c177 -48 319 -128 433 -242 182 -182 261 -431 211 -666 -32 -151 -97 -264
-225 -391 l-96 -96 70 -36 c158 -82 288 -209 365 -357 212 -406 -2 -890 -469
-1060 -178 -66 -139 -63 -1002 -67 l-788 -4 0 1476 0 1476 703 -3 702 -3 96
-27z"/>
<path d="M7365 9784 c-79 -40 -121 -117 -113 -204 19 -193 285 -242 372 -68
53 106 18 216 -86 269 -46 23 -131 25 -173 3z"/>
<path d="M3744 3309 l-180 -444 184 -3 c101 -1 264 -1 362 0 l178 3 -173 430
c-95 237 -177 436 -182 444 -6 10 -65 -123 -189 -430z"/>
<path d="M7500 3740 l0 -351 388 3 387 3 63 34 c117 63 173 154 180 291 3 71
0 95 -19 145 -28 75 -102 155 -178 192 l-56 28 -382 3 -383 3 0 -351z"/>
<path d="M7500 2515 l0 -356 468 3 c516 4 509 3 597 70 97 74 138 160 139 288
0 72 -4 94 -26 141 -50 109 -137 177 -252 198 -37 7 -224 11 -493 11 l-433 0
0 -355z"/>
</g>
</svg>
