<?xml version="1.0" encoding="UTF-8"?>
<svg width="105px" height="14px" viewBox="0 0 105 14" version="1.1" xmlns="http://www.w3.org/2000/svg" xmlns:xlink="http://www.w3.org/1999/xlink">
    <title>DC1DCA3E-4B21-4CCE-934C-7F450F9C957B@1x</title>
    <g id="🎱Logo" stroke="none" stroke-width="1" fill="none" fill-rule="evenodd">
        <g id="01:-Atoms-/-Logos-/-Ulster-Bank-/-Cyan" transform="translate(-4.000000, -4.000000)" fill="#0EA1CD">
            <g id="Logo/UlsterBank" transform="translate(4.000000, 4.000000)">
                <g id="Group-37" transform="translate(0.249322, 0.400000)">
                    <path d="M44.0585371,0.00922430405 L41.8774496,0.615593529 L41.8774496,3.34823507 L40.1023551,3.34823507 L40.1023551,5.17342985 L41.8774496,5.17342985 L41.8774496,10.0117412 C41.8774496,12.1806233 42.5894771,12.9293371 44.547908,12.9293371 C45.0988647,12.9293371 45.791469,12.8661248 46.4220136,12.7256532 L46.5082339,12.7055189 L46.5082339,10.8606581 C46.018863,11.0048757 45.571181,11.0245417 45.1827163,11.0245417 C44.3650453,11.0245417 44.0774866,10.7796528 44.0774866,9.40537199 L44.0774866,5.17342985 L46.5082339,5.17342985 L46.5082339,3.34823507 L44.0585371,3.34823507 L44.0585371,0.00922430405 Z" id="Fill-1"></path>
                    <path d="M36.8862932,7.21776039 C35.9070777,6.81320208 35.334329,6.53085409 35.334329,5.88000218 C35.334329,5.09242454 36.0676747,4.8709476 36.9502477,4.8709476 C37.6205863,4.8709476 38.3150855,5.01141923 38.7807695,5.17342985 L38.7807695,3.330442 C38.2710279,3.23211186 37.5788974,3.14829711 36.825181,3.14829711 C34.5597682,3.14829711 33.0689162,4.20370733 33.0689162,6.00268074 C33.0689162,7.70613344 34.1736721,8.27129765 35.5593544,8.8598738 C36.5181991,9.24523432 37.1511124,9.46671127 37.1511124,10.1732836 C37.1511124,10.8456745 36.6195789,11.1673545 35.536615,11.1673545 C34.6218278,11.1673545 33.8676377,10.9833367 33.3166809,10.7618597 L33.0689162,12.68398 C33.7212528,12.8455223 34.6218278,12.9494713 35.356121,12.9494713 C37.8238197,12.9494713 39.4132091,11.8964023 39.4132091,9.95227489 C39.4132091,8.21417252 38.1104309,7.7431243 36.8862932,7.21776039" id="Fill-3"></path>
                    <path d="M101.546396,10.2228701 C100.632083,8.9881244 99.6708692,7.67471462 99.6306015,7.6335096 C99.6708692,7.59230459 100.568602,6.49943527 101.425593,5.42435902 C101.934861,4.798792 102.523717,4.10907627 103.158999,3.31681625 L100.444483,3.31681625 C99.9769037,3.94706565 99.526853,4.51410282 99.1393357,5.01980071 C98.4689971,5.91273207 97.7541272,6.84312253 97.5930565,7.04493345 L97.5930565,0.0218199273 L95.3854396,0.0218199273 L95.3854396,12.7335664 L97.5930565,12.7335664 L97.5930565,8.30028163 C97.7361252,8.54189284 98.5087911,9.67784013 99.225556,10.7093702 C99.6504985,11.3377466 100.100549,12.0045187 100.611712,12.7335664 L103.404395,12.7335664 C102.713685,11.8036442 102.097827,10.9739251 101.546396,10.2228701" id="Fill-5"></path>
                    <polygon id="Fill-7" points="29.2637143 12.7646107 31.4684887 12.7646107 31.4684887 0.0528641587 29.2637143 0.0528641587"></polygon>
                    <path d="M25.2242018,7.46307068 C25.2242018,7.88589031 25.2242018,8.45245924 25.1602472,8.7984877 C24.9788058,10.3591276 24.1834005,11.0666364 22.3907777,11.0666364 C20.7540145,11.0666364 19.9188153,10.4579259 19.673893,9.2451875 C19.5943051,8.85982698 19.5549849,8.14857226 19.5549849,7.68642058 L19.5549849,0.0531919259 L17.3118377,0.0531919259 L17.3118377,7.86575604 C17.3118377,8.45245924 17.3516316,9.15996804 17.4729084,9.75041715 C17.9404874,11.8340797 19.4929252,12.9494245 22.2050726,12.9494245 C25.2038311,12.9494245 26.934868,11.7123377 27.3261752,9.30605854 C27.4024469,8.81815373 27.4251863,8.07224934 27.4251863,7.48320495 L27.4251863,0.0531919259 L25.2242018,0.0531919259 L25.2242018,7.46307068 Z" id="Fill-9"></path>
                    <path d="M49.9219391,6.67268362 C50.1445957,5.53673633 50.8395687,4.830164 51.88037,4.830164 C52.3896378,4.830164 52.8178966,4.98936519 53.1443017,5.31572762 C53.4702331,5.63974886 53.6331988,6.08363923 53.6331988,6.67268362 L49.9219391,6.67268362 Z M51.9400609,3.17072575 C49.3089227,3.17072575 47.5954141,5.11204375 47.5954141,8.10924021 C47.5954141,11.3293183 49.12606,12.9494245 52.1849832,12.9494245 C53.3849604,12.9494245 54.4897163,12.7476136 55.450456,12.3425871 L55.5096732,12.3210481 L55.3092822,10.5192652 L55.1638448,10.5787316 C54.407286,10.9636238 53.4299654,11.1673077 52.5137571,11.1673077 C51.6335528,11.1673077 50.9802687,10.9458308 50.5354292,10.4995992 C50.0853785,10.0116944 49.8579845,9.30605854 49.8579845,8.3517879 L49.8579845,8.27125083 L55.7721238,8.27125083 L55.8341834,7.25938681 C55.8341834,4.66768514 54.407286,3.17072575 51.9400609,3.17072575 L51.9400609,3.17072575 Z" id="Fill-10"></path>
                    <path d="M90.7540394,3.13940058 C89.3854117,3.13940058 88.3256609,3.70643774 87.6733243,4.73749955 C87.7344365,4.27347491 87.7344365,3.80664084 87.7344365,3.41940737 L87.7344365,3.31686308 L85.6135136,3.31686308 L85.6135136,12.7336133 L87.8391325,12.7336133 L87.8391325,8.18280052 C87.8391325,6.33559852 88.8174005,4.98004724 90.1405494,4.98004724 C91.0600739,4.98004724 91.426273,5.48808632 91.426273,6.70316596 L91.426273,12.7336133 L93.6111505,12.7336133 L93.6111505,6.17780205 C93.6111505,4.17233533 92.6295663,3.13940058 90.7540394,3.13940058" id="Fill-11"></path>
                    <path d="M81.673486,8.64668468 C81.673486,9.86176433 80.8373392,11.1555081 79.4923984,11.1555081 C78.7803709,11.1555081 78.3279516,10.7481403 78.3279516,10.1244463 C78.3279516,9.11070932 79.4526045,8.58347245 81.673486,8.56380642 L81.673486,8.64668468 Z M83.8782604,6.33545804 C83.8782604,4.13098985 82.7555025,3.1392601 80.144735,3.1392601 C79.0646134,3.1392601 77.8996929,3.34247574 76.859839,3.74516109 L76.7778824,3.78730258 L76.9830108,5.70895455 L77.1260795,5.62794924 C77.8404757,5.16392461 78.9229659,4.89890146 79.8405955,4.89890146 C81.1443212,4.89890146 81.673486,5.34560126 81.673486,6.53633248 L81.673486,7.02470554 C78.2289404,7.0448398 76.2089236,8.30018798 76.2089236,10.4681336 C76.2089236,11.9875684 77.249725,12.9179589 78.901174,12.9179589 C80.144735,12.9179589 81.2684404,12.3490487 81.8563487,11.3989923 C81.8189234,11.7422113 81.7971315,12.1687768 81.7971315,12.6356109 L81.7971315,12.7334728 L83.9370039,12.7334728 L83.9370039,12.6159449 C83.8782604,11.8845559 83.8782604,10.9738314 83.8782604,10.1019708 L83.8782604,6.33545804 Z" id="Fill-12"></path>
                    <path d="M70.4860322,10.8708189 L68.6502993,10.8708189 L68.6502993,7.06356935 L70.3434372,7.06356935 L70.3803888,7.06356935 C71.7703347,7.06356935 72.6870168,7.71161183 72.6870168,8.94916694 C72.6870168,10.3065912 71.728172,10.8708189 70.4860322,10.8708189 L70.4860322,10.8708189 Z M68.6502993,1.78183587 L70.3434372,1.78183587 L70.4021807,1.78183587 C71.607369,1.78183587 72.2814975,2.26974068 72.2814975,3.46094015 C72.2814975,4.59501448 71.3662366,5.28426197 70.1975261,5.28426197 L68.6502993,5.28426197 L68.6502993,1.78183587 Z M72.7054925,6.05264182 C73.6690747,5.69116148 74.6658184,4.81836438 74.6658184,3.25912923 C74.6658184,1.23680592 73.0361613,0.000187295514 70.5267737,0.000187295514 L66.4071522,0.000187295514 L66.4071522,12.7166162 L70.3230665,12.7166162 C73.3601978,12.7166162 75.0936034,11.1756424 75.0936034,8.94916694 C75.0936034,7.30705352 74.0343263,6.37666306 72.7054925,6.05264182 L72.7054925,6.05264182 Z" id="Fill-13"></path>
                    <path d="M59.3310295,4.830164 C59.3907205,4.28232462 59.427672,3.79629277 59.427672,3.4502643 L59.427672,3.34818825 L57.310539,3.34818825 L57.310539,12.7649384 L59.532368,12.7649384 L59.532368,8.9192933 C59.532368,7.23925255 59.8578257,6.14778794 60.490739,5.63974886 C60.8000896,5.39907412 61.1634463,5.25438834 61.6106545,5.25438834 C61.7745677,5.25438834 61.999593,5.27358613 62.2663072,5.33586189 L62.3681608,3.17072575 C62.1625587,3.14825029 62.0412819,3.14825029 61.9176364,3.14825029 C60.5305329,3.14825029 59.7123882,4.01776971 59.3310295,4.830164" id="Fill-14"></path>
                    <path d="M4.05452997,2.62475933 L4.05452997,1.01495439 C4.05452997,0.406712208 4.51405536,0.00028094327 5.068802,0.00028094327 C5.62686481,0.00028094327 6.08212657,0.468051489 6.08212657,1.01495439 L6.08212657,3.014334 C6.08212657,3.42544765 5.80499011,3.81970471 5.42742131,3.95549395 C5.2038172,4.03368983 5.02758684,4.1310835 4.85135648,4.26687274 C4.52921496,4.48460378 4.19191385,4.83625111 4.01568349,5.36629741 C3.87545718,5.73901548 3.49978333,6.01153045 3.04167914,6.01153045 L1.01550375,6.01153045 C0.459335903,6.01153045 0.00170545508,5.5606165 0.00170545508,5.01465008 C0.00170545508,4.46353303 0.401539925,3.99342129 1.01550375,3.99342129 L2.62336891,3.99342129 L0.298265145,1.72246319 C-0.0996743749,1.33054733 -0.0996743749,0.705448552 0.298265145,0.31353269 C0.695730927,-0.0807243664 1.33148668,-0.0807243664 1.75074439,0.31353269 L4.05452997,2.62475933 Z" id="Fill-15"></path>
                    <path d="M2.65553569,8.94186241 L1.02682608,8.94186241 C0.411441039,8.94186241 0.000236868762,8.48767079 0.000236868762,7.93936318 C0.000236868762,7.38730965 0.473500654,6.93733218 1.02682608,6.93733218 L3.04968531,6.93733218 C3.46562685,6.93733218 3.86451385,7.21125187 4.00189773,7.58443818 C4.08101189,7.80591512 4.1795493,7.97916347 4.31693318,8.15428478 C4.53722113,8.47221891 4.89299801,8.80607317 5.42926889,8.98025799 C5.80636395,9.11885667 6.08207919,9.49017003 6.08207919,9.94248869 L6.08207919,11.945146 C6.08207919,12.4943901 5.62634369,12.9476452 5.07349201,12.9476452 C4.51590294,12.9476452 4.04027047,12.5519834 4.04027047,11.945146 L4.04027047,10.3559435 L1.74264348,12.6535913 C1.34612517,13.0473801 0.713685579,13.0473801 0.317167272,12.6535913 C-0.0817197228,12.2616754 -0.0817197228,11.6323625 0.317167272,11.2189076 L2.65553569,8.94186241 Z" id="Fill-16"></path>
                    <path d="M9.04682336,10.324197 L9.04682336,11.9340019 C9.04682336,12.5422441 8.58729796,12.9486753 8.03255132,12.9486753 C7.47401478,12.9486753 7.01875302,12.4809048 7.01875302,11.9340019 L7.01875302,9.93462228 C7.01875302,9.52350863 7.29588947,9.12925157 7.67345828,8.9943988 C7.89753613,8.91573469 8.07376649,8.81787278 8.24904937,8.68208354 C8.57213836,8.4643525 8.90943948,8.11270517 9.08566984,7.58312711 C9.22494867,7.21087728 9.60157,6.93742583 10.0592004,6.93742583 L12.0853758,6.93742583 C12.6420174,6.93742583 13.0996479,7.38833977 13.0996479,7.93524267 C13.0996479,8.48589148 12.6998134,8.95553499 12.0853758,8.95553499 L10.4779844,8.95553499 L12.8030882,11.2264931 C13.200554,11.618409 13.200554,12.2435077 12.8030882,12.6354236 C12.4056224,13.0296806 11.7698666,13.0296806 11.3506089,12.6354236 L9.04682336,10.324197 Z" id="Fill-17"></path>
                    <path d="M10.4458176,4.00728116 L12.0745272,4.00728116 C12.6889648,4.00728116 13.1006427,4.46147278 13.1006427,5.0097804 C13.1006427,5.56183393 12.6269052,6.0118114 12.0745272,6.0118114 L10.0511943,6.0118114 C9.63525274,6.0118114 9.23636574,5.73789171 9.0994556,5.3647054 C9.01986769,5.14322845 8.92180403,4.96904362 8.78442015,4.7948588 C8.56318472,4.47645642 8.20788158,4.14307041 7.67208444,3.96888558 C7.29498937,3.8302869 7.01832666,3.45897355 7.01832666,3.00665488 L7.01832666,1.0039976 C7.01832666,0.45381703 7.47453589,0.00149836411 8.02786132,0.00149836411 C8.58497665,0.00149836411 9.06108286,0.396691898 9.06108286,1.0039976 L9.06108286,2.59320003 L11.3587098,0.294615843 C11.7552282,-0.0982364969 12.3876677,-0.0982364969 12.7841861,0.294615843 C13.1821256,0.687468183 13.1821256,1.31584463 12.7841861,1.73023596 L10.4458176,4.00728116 Z" id="Fill-18"></path>
                </g>
            </g>
        </g>
    </g>
</svg>